<svg width="42" height="38" viewBox="0 0 42 38" fill="none" xmlns="http://www.w3.org/2000/svg">
<path d="M1.5 31.5031C1.5 29.2296 2.5094 27.0492 4.30616 25.4416C6.10291 23.8339 8.53983 22.9308 11.0808 22.9308H30.2425C32.7835 22.9308 35.2204 23.8339 37.0171 25.4416C38.8139 27.0492 39.8233 29.2296 39.8233 31.5031C39.8233 32.6399 39.3186 33.7301 38.4202 34.5339C37.5218 35.3377 36.3034 35.7893 35.0329 35.7893H6.29041C5.01991 35.7893 3.80145 35.3377 2.90308 34.5339C2.0047 33.7301 1.5 32.6399 1.5 31.5031Z" stroke="white" stroke-width="3" stroke-linejoin="round"/>
<path d="M20.6617 14.3585C24.6302 14.3585 27.8473 11.48 27.8473 7.92923C27.8473 4.37847 24.6302 1.5 20.6617 1.5C16.6932 1.5 13.4761 4.37847 13.4761 7.92923C13.4761 11.48 16.6932 14.3585 20.6617 14.3585Z" stroke="white" stroke-width="3"/>
</svg>
