<svg width="34" height="38" viewBox="0 0 34 38" fill="none" xmlns="http://www.w3.org/2000/svg">
<path d="M5.53451 11.0248H28.4054C28.9871 11.0247 29.5619 11.1435 30.0904 11.3728C30.6189 11.6022 31.0886 11.9368 31.4674 12.3537C31.8462 12.7706 32.125 13.2599 32.2848 13.7881C32.4445 14.3163 32.4815 14.8709 32.3931 15.4138L29.8617 30.943C29.642 32.2926 28.9179 33.5232 27.8205 34.4122C26.7231 35.3011 25.325 35.7896 23.8793 35.7892H10.0587C8.61328 35.7892 7.21565 35.3005 6.1187 34.4116C5.02174 33.5227 4.29793 32.2923 4.07823 30.943L1.54687 15.4138C1.45846 14.8709 1.49542 14.3163 1.6552 13.7881C1.81498 13.2599 2.09381 12.7706 2.47257 12.3537C2.85134 11.9368 3.32108 11.6022 3.84958 11.3728C4.37809 11.1435 4.95287 11.0247 5.53451 11.0248Z" stroke="currentColor" stroke-width="3" stroke-linecap="round" stroke-linejoin="round"/>
<path d="M10.9177 16.7397V7.21487C10.9177 5.69919 11.5552 4.24559 12.69 3.17385C13.8248 2.1021 15.3639 1.5 16.9688 1.5C18.5736 1.5 20.1127 2.1021 21.2475 3.17385C22.3823 4.24559 23.0198 5.69919 23.0198 7.21487V16.7397" stroke="currentColor" stroke-width="3" stroke-linecap="round" stroke-linejoin="round"/>
</svg>
