<svg width="38" height="36" viewBox="0 0 38 36" fill="none" xmlns="http://www.w3.org/2000/svg">
<path d="M32.9327 20.1518L21.5504 32.4948C20.7957 33.3128 19.7723 33.7722 18.7053 33.7722C17.6382 33.7722 16.6148 33.3128 15.8602 32.4948L4.47785 20.154C3.53694 19.1428 2.78952 17.94 2.2785 16.6147C1.76748 15.2895 1.50293 13.8678 1.50002 12.4314C1.49712 10.995 1.75593 9.57211 2.26159 8.24444C2.76725 6.91676 3.50981 5.71044 4.44663 4.69474C5.38344 3.67904 6.49607 2.87396 7.72064 2.32572C8.9452 1.77748 10.2576 1.49688 11.5824 1.50003C12.9073 1.50317 14.2185 1.79 15.4409 2.34405C16.6632 2.8981 17.7726 3.70846 18.7053 4.7286C20.5998 2.72569 23.1458 1.61267 25.7919 1.63065C28.4379 1.64862 30.9709 2.79615 32.8421 4.82463C34.7133 6.85312 35.7721 9.59923 35.7891 12.4681C35.806 15.3369 34.7798 18.0975 32.9327 20.1518Z" stroke="currentColor" stroke-width="3" stroke-linecap="round" stroke-linejoin="round"/>
</svg>
