<svg width="36" height="32" viewBox="0 0 36 32" fill="none" xmlns="http://www.w3.org/2000/svg">
<g clip-path="url(#clip0_823_6779)">
<path d="M34.9072 29.4778C35.5408 29.4778 35.9794 29.9596 35.9794 30.7437C35.9794 31.5278 35.5408 32 34.9072 32C34.2737 32 33.8398 31.524 33.8398 30.7437C33.8398 29.9634 34.2737 29.4778 34.9072 29.4778Z" fill="#161717"/>
<path d="M17.8033 15.2092C17.8033 25.3493 13.3245 32 5.46111 32H0V31.7272C2.62114 31.7272 2.9489 29.5465 2.9489 25.5678V6.43224C2.9489 2.45347 2.62114 0.272819 0 0.272819V0H5.46111C13.9256 0 17.8033 5.72348 17.8033 15.2092ZM8.41001 30.8553C12.3967 28.9475 15.1822 23.2774 15.1822 15.7005C15.1822 6.26912 11.3044 0.435939 5.46111 0.435939V28.0746C5.46111 29.6019 5.51557 30.365 5.95227 30.8009C6.55333 31.4553 7.70002 31.1825 8.41001 30.8553Z" fill="#161717"/>
<path d="M26.1228 31.5641C29.8362 31.5097 31.3661 30.8553 31.9662 24.1502H32.2395L31.6384 32H17.9316V31.1825C20.5528 31.1825 20.8805 29.0019 20.8805 25.0221V6.43224C20.8805 2.45347 20.5528 0.272819 17.9316 0.272819V0H31.6384L32.2395 7.84976H31.9662C31.3106 0.599058 29.5638 0.435939 25.1405 0.435939H23.3927V13.3558H24.485C27.5973 13.3558 28.1983 12.2654 27.9795 9.59447H28.3073L28.7994 17.6083H28.4716C28.3073 14.9373 27.6527 13.847 24.5394 13.847H23.3927V25.5678C23.3927 29.4378 23.666 31.4553 26.1228 31.5641Z" fill="#161717"/>
<path d="M5.125 31.1835H17.9306V32H5.125V31.1835Z" fill="#161717"/>
</g>
<defs>
<clipPath id="clip0_823_6779">
<rect width="35.9793" height="32" fill="white"/>
</clipPath>
</defs>
</svg>
