<svg width="197" height="36" viewBox="0 0 197 36" fill="none" xmlns="http://www.w3.org/2000/svg">
<path d="M19.2222 16.7531C19.2222 27.7203 14.3872 34.9139 5.89641 34.9139H0V34.6191C2.83034 34.6191 3.1841 32.2605 3.1841 27.9562V7.25992C3.1841 2.95561 2.83034 0.597062 0 0.597062V0.302204H5.89641C15.0357 0.302204 19.2222 6.49337 19.2222 16.7531ZM9.08041 33.6756C13.3848 31.6119 16.3919 25.4798 16.3919 17.2837C16.3919 7.08308 12.2055 0.773894 5.89641 0.773894V30.6685C5.89641 32.3194 5.95532 33.145 6.42711 33.6167C7.07563 34.3242 8.31387 34.0295 9.08041 33.6756Z" fill="#161717"/>
<path d="M34.3276 29.1354C34.9761 32.7322 35.8606 34.6191 38.455 34.6191V34.9139H29.1977V34.6191C32.087 34.6191 32.087 32.2605 31.3793 27.9562L29.6104 16.2814C27.2519 15.5738 25.7189 14.2766 25.1293 13.628V27.9562C25.1293 32.2605 25.424 34.6191 28.3132 34.6191V34.9139H19.2328V34.6191C22.0631 34.6191 22.4168 32.2605 22.4168 27.9562V7.25992C22.4168 2.95561 22.0631 0.597062 19.2328 0.597062V0.302204H27.6057C32.3817 0.302204 35.7426 2.71976 35.7426 7.02407C35.7426 13.3332 30.436 15.6328 26.4854 14.1587C27.7236 15.0432 29.7284 16.0455 32.3228 16.2224L34.3276 29.1354ZM26.7802 0.773894H25.1293V12.9205C27.4878 14.7483 32.8534 13.8639 32.8534 7.31893C32.8534 3.01452 30.0822 0.773894 26.7802 0.773894Z" fill="#161717"/>
<path d="M51.4653 0.00740433C60.3098 0.00740433 66.2061 6.67026 66.2061 17.6375C66.2061 28.5458 60.3098 35.2086 51.4653 35.2086C42.6207 35.2086 36.7833 28.5458 36.7833 17.6375C36.7833 6.67026 42.6207 0.00740433 51.4653 0.00740433ZM51.4653 34.6779C58.1281 34.6779 63.3169 27.5434 63.3169 17.6375C63.3169 7.67265 58.1281 0.538003 51.4653 0.538003C44.8023 0.538003 39.6135 7.67265 39.6135 17.6375C39.6135 27.5434 44.8023 34.6779 51.4653 34.6779Z" fill="#161717"/>
<path d="M73.0954 14.8072H72.034V27.9562C72.034 32.2605 72.3288 34.6191 75.2184 34.6191V34.9139H66.1377V34.6191C68.9679 34.6191 69.3217 32.2605 69.3217 27.9562V7.25992C69.3217 2.95561 68.9679 0.597062 66.1377 0.597062V0.302204H74.5109C79.2864 0.302204 82.647 2.71976 82.647 7.02407C82.647 12.036 78.5789 14.8072 73.0954 14.8072ZM73.6849 0.773894H72.034V14.3356H73.2722C77.0454 14.3356 79.7581 12.036 79.7581 7.31893C79.7581 3.01452 76.9867 0.773894 73.6849 0.773894Z" fill="#161717"/>
<path d="M100.334 34.4394C104.345 34.3805 105.996 33.6729 106.643 26.4204H106.939L106.29 34.9112H91.4906V34.6163C94.3208 34.6163 94.674 32.2578 94.674 27.9535V7.25716C94.674 2.95285 94.3208 0.594307 91.4906 0.594307V0.29945H106.29L106.939 8.79025H106.643C105.936 0.948072 104.049 0.771137 99.2735 0.771137H97.3867V15.4871H98.566C101.926 15.4871 102.575 14.3078 102.339 11.4186H102.694L103.224 20.0863H102.87C102.694 17.197 101.985 16.0178 98.6247 16.0178H97.3867V27.9535C97.3867 32.1398 97.6813 34.3215 100.334 34.4394Z" fill="#161717"/>
<path d="M127.122 16.7504C127.122 27.7176 122.288 34.9112 113.797 34.9112H107.901V34.6163C110.731 34.6163 111.085 32.2578 111.085 27.9535V7.25716C111.085 2.95285 110.731 0.594307 107.901 0.594307V0.29945H113.797C122.936 0.29945 127.122 6.49062 127.122 16.7504ZM116.981 33.6729C121.285 31.6091 124.292 25.477 124.292 17.281C124.292 7.08033 120.106 0.771137 113.797 0.771137V30.6658C113.797 32.3168 113.856 33.1422 114.328 33.6139C114.976 34.3215 116.215 34.0267 116.981 33.6729Z" fill="#161717"/>
<path d="M136.212 34.6163V34.9112H127.132V34.6163C129.962 34.6163 130.316 32.2578 130.316 27.9535V7.25716C130.316 2.95285 129.962 0.594307 127.132 0.594307V0.29945H136.212V0.594307C133.323 0.594307 133.028 2.95285 133.028 7.25716V27.9535C133.028 32.2578 133.323 34.6163 136.212 34.6163Z" fill="#161717"/>
<path d="M150.256 0.29945L150.964 8.79025H150.61C150.021 1.95046 148.487 0.948074 145.008 0.830152V27.9535C145.008 32.2578 145.362 34.6163 148.193 34.6163V34.9112H139.112V34.6163C141.942 34.6163 142.295 32.2578 142.295 27.9535V0.830152C138.817 0.948074 137.284 1.95046 136.694 8.79025H136.399L137.048 0.29945H150.256Z" fill="#161717"/>
<path d="M160.225 34.6163V34.9112H151.144V34.6163C153.974 34.6163 154.328 32.2578 154.328 27.9535V7.25716C154.328 2.95285 153.974 0.594307 151.144 0.594307V0.29945H160.225V0.594307C157.336 0.594307 157.04 2.95285 157.04 7.25716V27.9535C157.04 32.2578 157.336 34.6163 160.225 34.6163Z" fill="#161717"/>
<path d="M189.115 0.29945H196.013V0.594307C193.124 0.594307 192.829 2.95285 192.829 7.25716V34.9112H192.298L180.682 4.72179V27.9535C180.682 32.2578 181.037 34.6163 183.925 34.6163V34.9112H177.027V34.6163C179.857 34.6163 180.211 32.2578 180.211 27.9535V7.25716C180.211 2.95285 179.857 0.594307 177.027 0.594307V0.29945H181.863L192.298 27.4228V7.25716C192.298 2.95285 191.945 0.594307 189.115 0.594307V0.29945Z" fill="#161717"/>
<path d="M168.6 0C173.648 0 177.136 3.83931 177.136 10.098C177.136 16.3232 173.648 20.1255 168.6 20.1255C163.553 20.1255 160.098 16.3232 160.098 10.098C160.098 3.83931 163.553 0 168.6 0ZM168.6 19.5866C172.403 19.5866 174.499 15.7512 174.499 10.098C174.499 4.41131 172.403 0.542649 168.6 0.542649C164.798 0.542649 162.702 4.41131 162.702 10.098C162.702 15.7512 164.798 19.5866 168.6 19.5866Z" fill="#161717"/>
</svg>
